<svg width="28" height="28" viewBox="0 0 28 28" fill="none" xmlns="http://www.w3.org/2000/svg">
<path fill-rule="evenodd" clip-rule="evenodd" d="M12.6659 9.72763C13.2704 8.91306 13.4871 8.05456 12.8035 7.29677C11.2694 5.15013 10.2377 3.82266 9.59052 3.18337C8.3602 1.96802 6.3363 2.13242 5.27076 3.18234C4.69844 3.74626 4.50469 3.93991 3.91704 4.53679C0.643785 7.81181 2.63999 14.7351 7.94662 20.0469C13.2521 25.3576 20.1747 27.3548 23.4548 24.0729C23.9971 23.5501 24.4562 23.0908 24.8183 22.7081C25.8625 21.6044 26.021 19.6697 24.8114 18.4129C24.1912 17.7685 22.9254 16.7866 20.6884 15.1865C20.0033 14.5739 19.191 14.7067 18.4462 15.1953C18.088 15.4303 17.8273 15.668 17.335 16.1608L16.441 17.0553C16.3233 17.1731 14.7245 16.3724 13.1725 14.8189C11.6197 13.2645 10.8195 11.6657 10.9367 11.5485C11.1784 11.3068 11.4766 11.0085 11.8313 10.6534C11.9875 10.4971 12.0622 10.4214 12.1579 10.3207C12.3574 10.111 12.5226 9.92076 12.6659 9.72763ZM18.09 18.7052L18.9842 17.8106C19.2551 17.5394 19.4307 17.3726 19.5735 17.2576C21.5331 18.6649 22.668 19.5497 23.1316 20.0314C23.4099 20.3206 23.3666 20.8482 23.1247 21.104C22.7899 21.4579 22.3549 21.8931 21.821 22.408C19.7 24.53 14.1119 22.9177 9.59598 18.3974C5.07867 13.8756 3.4672 8.28667 5.57223 6.18048C6.1575 5.58605 6.34294 5.40072 6.90708 4.84484C7.1186 4.63642 7.69477 4.58962 7.95209 4.8438C8.45033 5.33599 9.37456 6.5194 10.7342 8.4133C10.6638 8.50068 10.5759 8.59943 10.4689 8.71186C10.3904 8.79439 10.325 8.8607 10.1819 9.00385C9.8275 9.35864 9.5296 9.65671 9.28825 9.89803C7.76791 11.4182 9.06269 14.0056 11.5231 16.4684C13.9819 18.9296 16.5702 20.2258 18.09 18.7052Z" fill="black"/>
</svg>
