<svg width="38" height="37" viewBox="0 0 38 37" fill="none" xmlns="http://www.w3.org/2000/svg">
<path d="M7.76953 29.2344L7.76953 33.5117L11.6836 33.5117L11.6836 28.6367L12 28.6367L12 33.8281L3.46875 33.8281L3.46875 28.6367L3.78516 28.6367L3.78516 33.5117L7.45312 33.5117L7.45312 29.2344L7.76953 29.2344ZM9.38672 21.1953C10.2656 21.2773 10.9414 21.5801 11.4141 22.1035C11.8828 22.627 12.1172 23.3379 12.1172 24.2363C12.1172 24.8418 11.9648 25.3789 11.6602 25.8477C11.3516 26.3125 10.916 26.6738 10.3535 26.9316C9.78711 27.1895 9.14062 27.3203 8.41406 27.3242L7.0957 27.3242C6.36914 27.3242 5.7207 27.1973 5.15039 26.9434C4.57617 26.6895 4.13281 26.3281 3.82031 25.8594C3.50781 25.3867 3.35156 24.8457 3.35156 24.2363C3.35156 23.3457 3.58594 22.6367 4.05469 22.1094C4.52344 21.582 5.19531 21.2773 6.07031 21.1953L6.07031 21.5117C5.28516 21.6016 4.68945 21.875 4.2832 22.332C3.87305 22.7891 3.66797 23.4238 3.66797 24.2363C3.66797 25.0645 3.98047 25.7344 4.60547 26.2461C5.23047 26.7539 6.06836 27.0078 7.11914 27.0078L8.37305 27.0078C9.04492 27.0078 9.64062 26.8945 10.1602 26.668C10.6758 26.4414 11.0781 26.1172 11.3672 25.6953C11.6562 25.2695 11.8008 24.7832 11.8008 24.2363C11.8008 23.4199 11.5996 22.7832 11.1973 22.3262C10.7949 21.8652 10.1914 21.5937 9.38672 21.5117L9.38672 21.1953ZM8.37305 13.1738C9.11133 13.1738 9.76562 13.3066 10.3359 13.5723C10.9023 13.834 11.3418 14.209 11.6543 14.6973C11.9629 15.1855 12.1172 15.748 12.1172 16.3848C12.1172 17.3457 11.7754 18.123 11.0918 18.7168C10.4082 19.3105 9.48633 19.6074 8.32617 19.6074L7.0957 19.6074C6.36133 19.6074 5.70898 19.4766 5.13867 19.2148C4.56836 18.9492 4.12891 18.5723 3.82031 18.084C3.50781 17.5918 3.35156 17.0293 3.35156 16.3965C3.35156 15.7598 3.50781 15.1973 3.82031 14.709C4.12891 14.2168 4.57031 13.8379 5.14453 13.5723C5.71484 13.3066 6.36523 13.1738 7.0957 13.1738L8.37305 13.1738ZM7.08398 13.4902C6.05273 13.4902 5.22656 13.752 4.60547 14.2754C3.98047 14.7988 3.66797 15.5059 3.66797 16.3965C3.66797 17.2754 3.97851 17.9766 4.59961 18.5C5.2168 19.0234 6.05859 19.2852 7.125 19.2852L8.37305 19.2852C9.05273 19.2852 9.6543 19.168 10.1777 18.9336C10.6973 18.6953 11.0977 18.3574 11.3789 17.9199C11.6602 17.4824 11.8008 16.9707 11.8008 16.3848C11.8008 15.4941 11.4902 14.7891 10.8691 14.2695C10.248 13.75 9.40039 13.4902 8.32617 13.4902L7.08398 13.4902Z" fill="black"/>
<path d="M28.0449 18.2812C28.4082 18.2812 28.7148 18.1953 28.9648 18.0234C29.2187 17.8555 29.4414 17.5879 29.6328 17.2207C29.8281 16.8574 30.0273 16.3066 30.2305 15.5684C30.4336 14.8301 30.6387 14.2754 30.8457 13.9043C31.0527 13.5371 31.293 13.2676 31.5664 13.0957C31.8398 12.9238 32.1719 12.8379 32.5625 12.8379C33.1836 12.8379 33.6855 13.0996 34.0684 13.623C34.4551 14.1465 34.6484 14.8281 34.6484 15.668C34.6484 16.2148 34.541 16.7051 34.3262 17.1387C34.1152 17.5762 33.8164 17.9141 33.4297 18.1523C33.0469 18.3906 32.6133 18.5098 32.1289 18.5098L32.1289 18.1934C32.7656 18.1934 33.291 17.959 33.7051 17.4902C34.123 17.0215 34.332 16.4141 34.332 15.668C34.332 14.918 34.1641 14.3105 33.8281 13.8457C33.4961 13.3848 33.0781 13.1543 32.5742 13.1543C32.0625 13.1543 31.6504 13.3555 31.3379 13.7578C31.0254 14.1602 30.748 14.8242 30.5059 15.75C30.2676 16.6758 29.9902 17.3535 29.6738 17.7832C29.2715 18.3301 28.7324 18.6035 28.0566 18.6035C27.627 18.6035 27.2461 18.4824 26.9141 18.2402C26.5859 17.998 26.332 17.6543 26.1523 17.209C25.9727 16.7637 25.8828 16.2637 25.8828 15.709C25.8828 15.0918 25.9844 14.5371 26.1875 14.0449C26.3945 13.5527 26.6875 13.1816 27.0664 12.9316C27.4453 12.6855 27.8926 12.5625 28.4082 12.5625L28.4082 12.8789C27.709 12.8789 27.166 13.1406 26.7793 13.6641C26.3926 14.1875 26.1992 14.8691 26.1992 15.709C26.1992 16.4551 26.3691 17.0703 26.709 17.5547C27.0527 18.0391 27.498 18.2812 28.0449 18.2812ZM29.6035 20.5898L26 20.5898L26 20.2734L34.5312 20.2734L34.5312 22.9395C34.5312 23.8105 34.3105 24.4863 33.8691 24.9668C33.4316 25.4512 32.8223 25.6934 32.041 25.6934C31.2676 25.6934 30.6699 25.457 30.248 24.9844C29.8262 24.5156 29.6113 23.8477 29.6035 22.9805L29.6035 20.5898ZM29.9199 20.5898L29.9199 22.9395C29.9199 23.709 30.1055 24.3066 30.4766 24.7324C30.8477 25.1621 31.3652 25.377 32.0293 25.377C32.7168 25.377 33.252 25.1621 33.6348 24.7324C34.0215 24.3066 34.2148 23.709 34.2148 22.9395L34.2148 20.5898L29.9199 20.5898ZM26 27.4805L34.5312 27.4805L34.5312 29.7246C34.5312 30.6426 34.3437 31.3359 33.9687 31.8047C33.5977 32.2773 33.0566 32.5137 32.3457 32.5137C31.8301 32.5137 31.4023 32.3828 31.0625 32.1211C30.7227 31.8594 30.5059 31.4902 30.4121 31.0137C30.3418 31.5527 30.1074 32.002 29.709 32.3613C29.3145 32.7207 28.8613 32.9004 28.3496 32.9004C27.623 32.9004 27.0488 32.6641 26.627 32.1914C26.209 31.7227 26 31.0684 26 30.2285L26 27.4805ZM30.2129 27.7969L26.3164 27.7969L26.3164 30.2637C26.3164 30.9863 26.4941 31.5527 26.8496 31.9629C27.209 32.377 27.7051 32.584 28.3379 32.584C28.877 32.584 29.3203 32.3848 29.668 31.9863C30.0195 31.5879 30.2012 31.0547 30.2129 30.3867L30.2129 27.7969ZM30.5293 27.7969L30.5293 29.8418C30.5293 30.6191 30.6777 31.2051 30.9746 31.5996C31.2754 31.9941 31.7402 32.1914 32.3691 32.1914C33.5801 32.1914 34.1953 31.3926 34.2148 29.7949L34.2148 27.7969L30.5293 27.7969Z" fill="black"/>
<path d="M2.76172 11V2.46875H5.38672C6.13672 2.46875 6.80664 2.63867 7.39648 2.97852C7.99023 3.31445 8.45312 3.79492 8.78516 4.41992C9.11719 5.04102 9.2832 5.74805 9.2832 6.54102V6.93359C9.2832 7.72656 9.11914 8.43164 8.79102 9.04883C8.4668 9.66602 8.00781 10.1445 7.41406 10.4844C6.82031 10.8242 6.15039 10.9961 5.4043 11H2.76172ZM4.51953 3.89258V9.58789H5.36914C6.05664 9.58789 6.58203 9.36328 6.94531 8.91406C7.30859 8.46484 7.49414 7.82227 7.50195 6.98633V6.53516C7.50195 5.66797 7.32227 5.01172 6.96289 4.56641C6.60352 4.11719 6.07812 3.89258 5.38672 3.89258H4.51953ZM17.5742 6.92773C17.5742 7.76758 17.4258 8.50391 17.1289 9.13672C16.832 9.76953 16.4062 10.2578 15.8516 10.6016C15.3008 10.9453 14.668 11.1172 13.9531 11.1172C13.2461 11.1172 12.6152 10.9473 12.0605 10.6074C11.5059 10.2676 11.0762 9.7832 10.7715 9.1543C10.4668 8.52148 10.3125 7.79492 10.3086 6.97461V6.55273C10.3086 5.71289 10.459 4.97461 10.7598 4.33789C11.0645 3.69727 11.4922 3.20703 12.043 2.86719C12.5977 2.52344 13.2305 2.35156 13.9414 2.35156C14.6523 2.35156 15.2832 2.52344 15.834 2.86719C16.3887 3.20703 16.8164 3.69727 17.1172 4.33789C17.4219 4.97461 17.5742 5.71094 17.5742 6.54688V6.92773ZM15.793 6.54102C15.793 5.64648 15.6328 4.9668 15.3125 4.50195C14.9922 4.03711 14.5352 3.80469 13.9414 3.80469C13.3516 3.80469 12.8965 4.03516 12.5762 4.49609C12.2559 4.95312 12.0938 5.625 12.0898 6.51172V6.92773C12.0898 7.79883 12.25 8.47461 12.5703 8.95508C12.8906 9.43555 13.3516 9.67578 13.9531 9.67578C14.543 9.67578 14.9961 9.44531 15.3125 8.98438C15.6289 8.51953 15.7891 7.84375 15.793 6.95703V6.54102ZM23.2754 8.76172C23.2754 8.42969 23.1582 8.17578 22.9238 8C22.6895 7.82031 22.2676 7.63281 21.6582 7.4375C21.0488 7.23828 20.5664 7.04297 20.2109 6.85156C19.2422 6.32812 18.7578 5.62305 18.7578 4.73633C18.7578 4.27539 18.8867 3.86523 19.1445 3.50586C19.4062 3.14258 19.7793 2.85938 20.2637 2.65625C20.752 2.45312 21.2988 2.35156 21.9043 2.35156C22.5137 2.35156 23.0566 2.46289 23.5332 2.68555C24.0098 2.9043 24.3789 3.21484 24.6406 3.61719C24.9062 4.01953 25.0391 4.47656 25.0391 4.98828H23.2812C23.2812 4.59766 23.1582 4.29492 22.9121 4.08008C22.666 3.86133 22.3203 3.75195 21.875 3.75195C21.4453 3.75195 21.1113 3.84375 20.873 4.02734C20.6348 4.20703 20.5156 4.44531 20.5156 4.74219C20.5156 5.01953 20.6543 5.25195 20.9316 5.43945C21.2129 5.62695 21.625 5.80273 22.168 5.9668C23.168 6.26758 23.8965 6.64062 24.3535 7.08594C24.8105 7.53125 25.0391 8.08594 25.0391 8.75C25.0391 9.48828 24.7598 10.0684 24.2012 10.4902C23.6426 10.9082 22.8906 11.1172 21.9453 11.1172C21.2891 11.1172 20.6914 10.998 20.1523 10.7598C19.6133 10.5176 19.2012 10.1875 18.916 9.76953C18.6348 9.35156 18.4941 8.86719 18.4941 8.31641H20.2578C20.2578 9.25781 20.8203 9.72852 21.9453 9.72852C22.3633 9.72852 22.6895 9.64453 22.9238 9.47656C23.1582 9.30469 23.2754 9.06641 23.2754 8.76172ZM28.9062 7.57812L27.9922 8.5625V11H26.2344V2.46875H27.9922V6.33594L28.7656 5.27539L30.9395 2.46875H33.1016L30.0723 6.25977L33.1895 11H31.0977L28.9062 7.57812ZM35.7207 11H33.9629V2.46875H35.7207V11Z" fill="black"/>
<rect x="0.5" y="0.5" width="37" height="36" stroke="black"/>
<rect x="18" y="13" width="2" height="21" fill="black"/>
</svg>
