<svg width="28" height="28" viewBox="0 0 28 28" fill="none" xmlns="http://www.w3.org/2000/svg">
<path fill-rule="evenodd" clip-rule="evenodd" d="M18.6666 2.33331H9.33325C5.46726 2.33331 2.33325 5.46732 2.33325 9.33331V18.6666C2.33325 22.5326 5.46726 25.6666 9.33325 25.6666H18.6666C22.5326 25.6666 25.6666 22.5326 25.6666 18.6666V9.33331C25.6666 5.46732 22.5326 2.33331 18.6666 2.33331ZM4.66659 9.33331C4.66659 6.75598 6.75592 4.66665 9.33325 4.66665H18.6666C21.2439 4.66665 23.3333 6.75598 23.3333 9.33331V18.6666C23.3333 21.244 21.2439 23.3333 18.6666 23.3333H9.33325C6.75592 23.3333 4.66659 21.244 4.66659 18.6666V9.33331ZM13.9999 19.8333C10.7783 19.8333 8.16658 17.2216 8.16658 14C8.16658 10.7783 10.7783 8.16665 13.9999 8.16665C17.2216 8.16665 19.8333 10.7783 19.8333 14C19.8333 17.2216 17.2216 19.8333 13.9999 19.8333ZM13.9999 17.5C15.9329 17.5 17.4999 15.933 17.4999 14C17.4999 12.067 15.9329 10.5 13.9999 10.5C12.0669 10.5 10.4999 12.067 10.4999 14C10.4999 15.933 12.0669 17.5 13.9999 17.5ZM20.9999 8.16665C20.9999 8.81098 20.4776 9.33331 19.8333 9.33331C19.1889 9.33331 18.6666 8.81098 18.6666 8.16665C18.6666 7.52231 19.1889 6.99998 19.8333 6.99998C20.4776 6.99998 20.9999 7.52231 20.9999 8.16665Z" fill="black"/>
</svg>
