<svg width="28" height="28" viewBox="0 0 28 28" fill="none" xmlns="http://www.w3.org/2000/svg">
<path fill-rule="evenodd" clip-rule="evenodd" d="M14 27.2155L14.7673 26.5455C21.2201 20.911 24.5 15.9912 24.5 11.6667C24.5 5.54246 19.7201 1.16669 14 1.16669C8.27989 1.16669 3.5 5.54246 3.5 11.6667C3.5 15.9912 6.77986 20.911 13.2326 26.5455L14 27.2155ZM14 24.1073C8.52438 19.1725 5.83333 14.9908 5.83333 11.6667C5.83333 6.87939 9.5248 3.50002 14 3.50002C18.4752 3.50002 22.1667 6.87939 22.1667 11.6667C22.1667 14.9908 19.4756 19.1725 14 24.1073ZM14 5.83335C17.2217 5.83335 19.8333 8.44503 19.8333 11.6667C19.8333 14.8883 17.2217 17.5 14 17.5C10.7783 17.5 8.16667 14.8883 8.16667 11.6667C8.16667 8.44503 10.7783 5.83335 14 5.83335ZM10.5 11.6667C10.5 9.73369 12.067 8.16669 14 8.16669C15.933 8.16669 17.5 9.73369 17.5 11.6667C17.5 13.5997 15.933 15.1667 14 15.1667C12.067 15.1667 10.5 13.5997 10.5 11.6667Z" fill="black"/>
</svg>
