<svg width="26" height="26" viewBox="0 0 26 26" fill="none" xmlns="http://www.w3.org/2000/svg">
<path fill-rule="evenodd" clip-rule="evenodd" d="M21.5033 4.48773C19.2472 2.23984 16.2468 1.00126 13.0501 1C6.46351 1 1.10283 6.33464 1.1002 12.8918C1.09932 14.9878 1.6496 17.0338 2.69528 18.8373L1 25L7.33483 23.3463C9.08018 24.2937 11.0453 24.793 13.0453 24.7938H13.0502C19.6362 24.7938 24.9973 19.4585 25 12.9013C25.0013 9.72359 23.7595 6.73561 21.5033 4.48773ZM13.0502 22.7852H13.0462C11.264 22.7845 9.51592 22.308 7.991 21.4074L7.62829 21.1932L3.86916 22.1746L4.87257 18.527L4.63638 18.153C3.64215 16.5792 3.11702 14.7602 3.1178 12.8925C3.11998 7.4425 7.5756 3.00857 13.0542 3.00857C15.707 3.00958 18.2008 4.0391 20.0761 5.90747C21.9513 7.77583 22.9834 10.2593 22.9824 12.9005C22.9801 18.3509 18.5246 22.7852 13.0502 22.7852ZM18.4983 15.3822C18.1997 15.2334 16.7317 14.5145 16.458 14.4154C16.1843 14.3162 15.9853 14.2666 15.7862 14.5641C15.5872 14.8616 15.0149 15.5309 14.8407 15.7292C14.6666 15.9276 14.4924 15.9524 14.1938 15.8036C13.8952 15.6549 12.9332 15.3411 11.7927 14.3287C10.9051 13.5409 10.3058 12.5677 10.1316 12.2702C9.95745 11.9727 10.1131 11.8119 10.2626 11.6637C10.3969 11.5306 10.5611 11.3167 10.7104 11.1431C10.8597 10.9696 10.9095 10.8457 11.009 10.6474C11.1085 10.449 11.0588 10.2755 10.9841 10.1268C10.9095 9.97804 10.3124 8.5154 10.0635 7.92045C9.82117 7.341 9.57498 7.4194 9.39171 7.41033C9.21774 7.40172 9.01848 7.39987 8.81946 7.39987C8.6204 7.39987 8.29693 7.47425 8.02322 7.77171C7.74954 8.06921 6.97823 8.78812 6.97823 10.2507C6.97823 11.7133 8.04811 13.1263 8.19742 13.3246C8.34669 13.523 10.3029 16.5245 13.2981 17.8116C14.0105 18.1178 14.5666 18.3006 15.0003 18.4376C15.7156 18.6637 16.3665 18.6318 16.881 18.5553C17.4546 18.47 18.6475 17.8364 18.8964 17.1423C19.1452 16.4482 19.1452 15.8532 19.0705 15.7293C18.9959 15.6053 18.7968 15.5309 18.4983 15.3822Z" fill="black" stroke="black" stroke-width="0.3"/>
</svg>
